PathFileType	4	(X/Y/Z)	c:/Users/goper/Files/vsCode/490R/osim_files/C06/C06_SSWS_03.trc
DataRate	CameraRate	NumFrames	NumMarkers	Units                	OrigDataRate	OrigDataStartFrame	OrigNumFrames
250.00	250.00	9	36	mm	250.0	1135	2268
                Frame#	Time	LPSIS			LASIS			LTH1			LTH2			LTH3			LTH4			LLFE			LMFE			LSH1			LSH2			LSH3			LSH4			LLMAL			LMMAL			LCAL			LMTP5			LTOE			LMTP1			RPSIS			RASIS			RTH1			RTH2			RTH3			RTH4			RLFE			RMFE			RSH1			RSH2			RSH3			RSH4			RLMAL			RMMAL			RCAL			RMTP1			RTOE			RMTP5		
		X1	Y1	Z1	X2	Y2	Z2	X3	Y3	Z3	X4	Y4	Z4	X5	Y5	Z5	X6	Y6	Z6	X7	Y7	Z7	X8	Y8	Z8	X9	Y9	Z9	X10	Y10	Z10	X11	Y11	Z11	X12	Y12	Z12	X13	Y13	Z13	X14	Y14	Z14	X15	Y15	Z15	X16	Y16	Z16	X17	Y17	Z17	X18	Y18	Z18	X19	Y19	Z19	X20	Y20	Z20	X21	Y21	Z21	X22	Y22	Z22	X23	Y23	Z23	X24	Y24	Z24	X25	Y25	Z25	X26	Y26	Z26	X27	Y27	Z27	X28	Y28	Z28	X29	Y29	Z29	X30	Y30	Z30	X31	Y31	Z31	X32	Y32	Z32	X33	Y33	Z33	X34	Y34	Z34	X35	Y35	Z35	X36	Y36	Z36

1135	4.53600	-923.18414	1012.86969	155.56482	-1100.75879	992.58948	241.06609	-1087.92041	784.98694	319.76541	-1119.39612	730.17554	318.50177	-1154.24316	816.41284	298.87210	-1177.21008	758.93317	300.71573	-1224.23645	505.99338	271.34253	-1227.79199	490.07785	155.45724	-1133.55273	414.73300	284.72043	-1128.70581	370.50555	281.77902	-1196.81262	400.83151	285.96576	-1181.82715	359.34766	282.05334	-1083.22742	134.83556	235.49803	-1105.27686	155.65355	160.33057	-1021.84827	131.10583	179.65491	-1167.06396	43.77752	270.84137	-1231.27307	52.96939	213.68796	-1206.27563	45.20347	164.41336	-917.93756	1012.86310	85.72561	-1096.97632	985.47717	6.62181	-998.57056	785.44025	-65.84816	-1005.97510	723.61060	-56.51064	-1073.43774	789.41412	-51.68874	-1070.29980	726.72565	-45.12230	-988.54303	460.03378	7.89028	-1011.79877	476.06119	110.70779	-923.74457	390.52063	-3.45059	-919.88281	342.60898	-1.09540	-983.27765	376.65152	2.45576	-971.45355	331.62503	4.55070	-911.64734	93.39657	60.10826	-929.66492	120.94964	133.61467	-840.75256	70.72560	107.16575	-1047.54419	36.12605	144.34891	-1067.63416	53.30988	99.47716	-1020.65149	32.20626	32.18153
1136	4.54000	-927.74731	1012.30884	155.68204	-1105.56824	992.22168	240.77063	-1093.70264	784.86108	319.53049	-1125.62683	730.14557	318.25031	-1159.84729	816.58429	298.42880	-1182.89954	759.12299	300.47043	-1231.28735	506.49109	270.56549	-1234.38013	490.64328	154.60362	-1142.81641	412.74619	284.44724	-1138.97583	368.39941	281.31906	-1206.27759	400.57242	285.25424	-1192.57056	358.67920	281.30969	-1099.97327	131.58981	234.87926	-1121.54651	153.02180	159.79845	-1038.60718	126.25628	179.00677	-1186.15991	42.96256	270.31958	-1249.96631	53.91819	213.35376	-1225.32043	45.46138	163.72823	-922.48523	1012.30676	85.90839	-1101.39075	984.97028	6.33749	-1002.08301	785.27405	-66.10424	-1009.05914	723.42432	-56.71857	-1077.07764	788.83661	-51.78318	-1073.45691	726.17621	-45.17690	-989.63513	460.04340	7.90148	-1012.89093	475.90955	110.69633	-924.41193	390.76462	-3.50097	-920.33331	342.88263	-1.06242	-983.91620	376.70151	2.43805	-971.88495	331.72308	4.49043	-911.76343	93.63042	60.24163	-929.86670	121.12074	133.76297	-840.74854	70.83076	107.22704	-1047.33215	36.31981	144.43704	-1067.83215	53.58195	99.24326	-1020.67114	32.23026	32.21271
1137	4.54400	-932.43060	1011.64001	155.81952	-1110.41357	991.85156	240.50342	-1099.39380	784.60919	319.19342	-1131.61597	730.04962	317.93073	-1165.45703	816.64520	298.05688	-1188.91699	759.40576	299.79361	-1238.30481	506.85818	269.81079	-1241.32751	491.01688	154.28006	-1151.98633	410.66864	284.28384	-1149.57898	366.26428	281.04605	-1215.91858	400.28146	284.61703	-1203.22766	358.04108	280.61084	-1116.21936	128.69440	234.53349	-1137.61182	150.57339	159.17903	-1055.41248	121.61623	178.28796	-1205.12207	42.32229	269.81702	-1269.51917	53.75775	214.18704	-1244.76611	45.42263	163.79427	-926.92822	1011.78149	86.13203	-1105.84082	984.47510	6.04112	-1005.48883	785.08038	-66.34349	-1012.15649	723.21497	-56.92373	-1080.39172	788.28955	-51.92245	-1076.51440	725.62891	-45.25892	-990.55939	460.08051	7.91407	-1014.11938	475.86346	110.60756	-924.93188	391.05322	-3.32216	-920.82361	343.10666	-0.94956	-984.54645	376.75153	2.38263	-972.37646	331.80478	4.45506	-911.89520	93.85107	60.38130	-930.13373	121.29745	133.89372	-840.77527	70.90228	107.30828	-1046.72192	36.90609	144.33791	-1067.93164	53.51145	99.29533	-1020.67450	32.24366	32.25287
1138	4.54800	-937.11133	1010.95282	156.02042	-1115.23987	991.37695	240.15312	-1105.34875	783.96552	319.38760	-1137.71912	729.95441	317.65009	-1171.05334	816.66779	297.65311	-1194.69177	759.43567	299.58493	-1245.16943	507.10742	269.02087	-1247.75769	491.35501	153.52528	-1161.21155	408.45889	284.09787	-1160.01807	364.05450	280.81631	-1225.34497	399.90656	283.91595	-1214.11841	357.33734	279.89117	-1133.43018	125.38902	233.36923	-1153.75342	148.21179	158.48778	-1072.33606	117.12110	178.08426	-1224.13354	41.84991	269.23846	-1287.72021	54.89028	213.74739	-1263.63208	46.25977	162.98729	-931.65131	1011.04346	86.29439	-1110.25891	983.91620	5.80469	-1008.98712	784.84662	-66.59148	-1015.28998	722.96729	-57.09007	-1083.92468	787.71735	-52.01196	-1079.68054	725.05487	-45.30644	-991.59607	460.11459	7.92124	-1015.24310	475.79001	110.53251	-925.66333	391.28125	-3.18941	-921.33740	343.37585	-0.79879	-985.15424	376.83829	2.27138	-971.68396	331.22839	4.14533	-912.01965	94.06197	60.54581	-930.40839	121.44884	134.05972	-840.82434	70.97659	107.43188	-1046.76221	36.86966	144.35193	-1068.08850	53.53344	99.15705	-1020.67499	32.25003	32.28979
1139	4.55200	-941.85980	1010.17010	156.14740	-1120.02344	990.84015	239.89346	-1111.18726	783.65192	319.17984	-1143.32092	729.76080	317.29883	-1176.63098	816.60773	297.25143	-1201.06787	759.86340	299.19452	-1252.00806	507.22012	268.30478	-1254.40356	492.01321	151.91292	-1170.41992	406.16541	283.90933	-1170.50439	361.81030	280.55328	-1234.81787	399.43564	283.35773	-1224.61719	356.54184	279.27090	-1150.19897	122.69536	232.69083	-1169.81799	145.92642	157.77623	-1089.28223	112.81139	177.35706	-1243.01526	41.62990	268.55072	-1305.40015	57.64787	211.77176	-1282.52124	46.58853	162.63416	-936.22217	1010.40033	86.54365	-1114.69788	983.32129	5.45128	-1012.43292	784.67926	-66.84451	-1018.41467	722.73999	-57.26324	-1087.39368	787.03900	-52.13615	-1082.74512	724.45447	-45.44519	-992.59735	460.12399	7.90809	-1016.45758	475.77127	110.55669	-926.32007	391.51685	-2.99623	-921.83295	343.63837	-0.61389	-985.77563	376.98944	2.00358	-973.42511	331.99155	4.39832	-912.13055	94.26412	60.73063	-930.30164	121.66470	134.47978	-840.88776	71.08188	107.56371	-1046.82983	36.83050	144.35461	-1068.15247	53.20845	99.36909	-1020.55518	32.50421	32.16306
1140	4.55600	-946.51361	1009.40259	156.37025	-1124.84766	990.34613	239.68701	-1116.97522	783.24445	318.93948	-1149.61218	729.48285	316.98849	-1182.52600	816.54285	297.29013	-1206.77332	759.63837	298.85568	-1258.71875	507.27350	267.53195	-1260.19983	491.80222	151.78871	-1179.71082	403.86929	283.68402	-1181.09387	359.60367	280.26959	-1244.16980	399.01233	282.59726	-1235.51123	355.82776	278.89349	-1166.97424	120.16879	231.95450	-1185.87976	143.76457	157.09224	-1106.29907	108.83371	176.62737	-1261.97021	41.34867	267.80124	-1324.40613	59.60068	210.93349	-1300.75061	47.90616	161.33173	-940.85126	1009.67755	86.81113	-1119.20947	982.71411	5.15650	-1016.02759	784.45068	-67.05767	-1021.45471	722.52899	-57.45704	-1090.79822	786.38513	-52.33110	-1085.84680	723.87103	-45.52818	-993.65833	460.08737	7.94128	-1017.64056	475.80338	110.53337	-926.84210	391.81473	-2.82607	-922.24835	343.95578	-0.46698	-986.34760	377.04099	1.99006	-973.71442	332.08557	4.42124	-912.27045	94.45621	60.93273	-930.63104	121.85275	134.59023	-840.94281	71.16854	107.67435	-1046.62036	36.82564	144.49429	-1068.20715	53.17146	99.34619	-1020.69598	32.28978	32.37005
1141	4.56000	-951.27490	1008.55023	156.52200	-1129.61255	989.74304	239.49057	-1122.69482	782.82855	318.70303	-1155.63684	729.14001	316.75388	-1188.03052	816.28168	296.86285	-1212.44812	759.44971	298.40134	-1265.17993	507.16632	266.81531	-1266.28333	491.69263	151.20369	-1189.02478	401.58200	283.42328	-1192.39758	358.05115	279.46509	-1253.79089	398.56738	282.33688	-1245.97876	355.10342	278.32669	-1182.82703	117.93058	231.52618	-1202.39233	141.91187	156.34210	-1123.36475	104.91877	175.89279	-1280.70020	41.46985	267.06708	-1342.55103	61.38509	210.14607	-1319.19116	48.72510	160.76959	-945.45319	1008.92334	86.98230	-1123.74414	982.16302	4.92259	-1019.09039	784.23578	-68.07969	-1024.63354	722.22900	-57.61822	-1094.39392	785.74976	-52.47744	-1088.95618	723.25262	-45.65311	-994.79401	460.11322	7.83407	-1018.81952	475.70840	110.43906	-927.48627	392.12823	-2.73280	-922.56873	344.29001	-0.31169	-986.94818	377.12161	1.90849	-974.15015	332.24222	4.36307	-912.38605	94.65853	61.15983	-930.89777	122.02081	134.72318	-840.95361	71.27679	107.83158	-1046.66345	36.81894	144.47746	-1068.24500	53.10454	99.34560	-1020.68884	32.30364	32.40808
1142	4.56400	-955.96295	1007.64893	156.68486	-1134.59607	989.10626	239.27464	-1128.40967	782.33856	318.50259	-1161.46680	728.76166	316.42084	-1193.58850	815.97418	296.48706	-1218.19739	759.31335	297.72028	-1271.59778	506.93994	266.09824	-1272.04529	491.84415	150.46620	-1198.30396	399.35205	283.03143	-1203.13318	356.21219	280.32410	-1263.06836	398.18427	281.75870	-1256.71130	354.52097	277.75229	-1199.55969	115.76466	230.81714	-1218.23621	140.27570	155.70058	-1140.26489	101.29547	175.30345	-1299.23132	41.71059	266.20288	-1360.70300	63.08657	209.01881	-1337.62085	50.17932	159.76312	-949.95715	1008.18469	87.30114	-1127.60791	981.29315	4.73577	-1022.64758	784.11456	-68.21740	-1027.90149	721.85461	-57.80528	-1097.88281	785.05878	-52.67002	-1092.11304	722.58820	-45.77006	-995.86450	460.24921	7.73303	-1020.08667	475.61301	110.49083	-928.16455	392.47614	-2.34138	-923.22089	344.60294	-0.01053	-987.58191	377.21902	1.79998	-974.63055	332.39471	4.24484	-912.52625	94.88300	61.39442	-931.16388	122.19367	134.89107	-840.98236	71.39861	107.97224	-1046.67090	36.79562	144.49243	-1068.31055	53.36575	99.13181	-1020.69690	32.32283	32.47695
1143	4.56800	-960.73676	1006.79749	156.85742	-1139.51404	988.46631	239.08951	-1134.07715	781.76556	318.27011	-1167.34546	728.29346	316.12643	-1199.09790	815.54596	296.01959	-1223.90588	758.95117	297.17010	-1277.93567	506.63028	265.46216	-1278.66443	490.67151	149.95396	-1207.51428	397.17557	282.55045	-1213.35266	353.92389	278.77142	-1272.33484	397.76581	281.09378	-1267.05554	353.96069	277.22595	-1216.00439	113.90089	230.21886	-1234.20813	138.70819	155.02258	-1157.33521	97.95181	174.68384	-1317.71277	42.12944	265.42245	-1379.40381	63.46198	209.61288	-1355.77771	51.68398	158.92696	-954.68347	1007.40173	87.52040	-1132.48730	980.71765	4.46106	-1026.22766	783.92157	-68.37728	-1030.99768	721.61487	-57.91759	-1101.42505	784.38428	-52.87404	-1095.18823	721.92499	-45.94361	-997.02216	460.26788	7.74987	-1021.42261	475.52173	110.41473	-928.87933	392.81503	-2.23536	-923.68658	344.94931	0.20813	-988.21472	377.33063	1.69501	-975.21368	332.59229	4.00767	-912.64240	95.13563	61.59969	-931.53021	122.37191	135.05304	-841.00787	71.53001	108.10995	-1046.73181	36.78964	144.50299	-1068.40662	53.36252	99.15119	-1020.70221	32.34342	32.53056
